PathFileType	4	(X/Y/Z)	E:\Qualisys_Data\Carbon_Farble_Plate\Data\Amateur_Runner\S2\T3\S2T3V12_c3d.trc
DataRate	CameraRate	NumFrames	NumMarkers	Units	OrigDataRate	OrigDataStartFrame	OrigNumFrames
200.000000	200.000000	5	39	mm	200.000000	197	316
Frame#	Time	LSHO			RSHO			LICST			RICST			LASIS			LHEEL			RASIS			LTROC			RTROC			SACR			LTH1			LSK4			LTH2			LTH3			RHM5			LSK2			LTH4			RTH1			LTOE			RTH2			RTH3			RTH4			LLEP			RLEP			LSK1			LSK3			RSK1			LHM5			RSK2			LFT1			RSK3			RSK4			LLME			RLME			RTOE			RHEEL			RFT1			RFT2			LFT2			
		X1	Y1	Z1	X2	Y2	Z2	X3	Y3	Z3	X4	Y4	Z4	X5	Y5	Z5	X6	Y6	Z6	X7	Y7	Z7	X8	Y8	Z8	X9	Y9	Z9	X10	Y10	Z10	X11	Y11	Z11	X12	Y12	Z12	X13	Y13	Z13	X14	Y14	Z14	X15	Y15	Z15	X16	Y16	Z16	X17	Y17	Z17	X18	Y18	Z18	X19	Y19	Z19	X20	Y20	Z20	X21	Y21	Z21	X22	Y22	Z22	X23	Y23	Z23	X24	Y24	Z24	X25	Y25	Z25	X26	Y26	Z26	X27	Y27	Z27	X28	Y28	Z28	X29	Y29	Z29	X30	Y30	Z30	X31	Y31	Z31	X32	Y32	Z32	X33	Y33	Z33	X34	Y34	Z34	X35	Y35	Z35	X36	Y36	Z36	X37	Y37	Z37	X38	Y38	Z38	X39	Y39	Z39	

198	0.985	907.94921875	1468.600708007812	-497.6926879882812	954.3750610351562	1433.563842773438	-186.7389678955078	854.4266967773438	1014.481689453125	-497.3283081054688	870.2221069335938	988.492919921875	-196.5344696044922	913.1801147460938	964.7302856445312	-478.5159606933594	670.5155639648438	268.3993835449219	-397.1517028808594	926.1083374023438	940.4972534179688	-220.2442932128906	798.0753173828125	888.471435546875	-510.3051147460938	769.9461059570312	897.951171875	-199.0752258300781	771.7064819335938	1045.166259765625	-337.9460754394531	1011.594482421875	689.6713256835938	-494.0731506347656	820.0109252929688	393.934326171875	-477.5202941894531	936.2867431640624	658.5502319335938	-510.9048156738281	1044.76025390625	594.7549438476562	-469.5735473632812	557.95068359375	66.91189575195312	-227.0145111083984	890.2804565429688	464.5204772949219	-489.8384094238281	966.5987548828124	565.5146484375	-485.3513488769531	835.6280517578125	619.456787109375	-192.1510314941406	858.6681518554688	104.6560974121094	-431.1383666992188	761.1690673828125	642.5592041015625	-191.322509765625	805.2439575195312	524.3224487304688	-213.7075500488281	729.5506591796875	551.885986328125	-209.1992950439453	1006.779724121094	532.3765869140625	-477.6620178222656	743.2272338867188	508.1647644042969	-205.5423583984375	946.0606689453124	409.8339233398438	-479.7196960449219	875.556396484375	338.8175048828125	-471.945556640625	702.2991943359375	388.7683715820312	-206.0363311767578	793.8853149414062	129.8089294433594	-485.4127502441406	637.599365234375	435.5664978027344	-200.0883331298828	666.2940673828125	240.2322845458984	-365.7092590332031	643.5224609375	305.521728515625	-218.2615661621094	580.7874145507812	354.7085876464844	-215.5355987548828	725.240478515625	240.5716247558594	-452.4759216308594	500.6688232421875	178.6057586669922	-252.3280639648438	622.8903198242188	50.28104400634766	-281.687744140625	433.8244323730469	194.7687377929688	-315.5410766601562	433.4830322265625	166.5570220947266	-345.005859375	416.4924621582031	174.5276489257812	-297.2922973632812	652.4903564453125	241.2737579345703	-419.5085144042969
199	0.99	921.5232543945312	1472.848022460938	-497.4842224121094	970.7449340820312	1438.232543945312	-187.7342071533203	870.9514770507812	1019.001586914062	-496.961669921875	888.3673095703125	992.2247314453124	-196.5214691162109	929.7539672851562	968.9884033203124	-478.8165588378906	698.8247680664062	256.7951049804688	-394.1371154785156	943.8954467773438	943.63818359375	-221.1917419433594	814.7880249023438	893.0620727539062	-510.7508239746094	787.4944458007812	902.583251953125	-198.2692565917969	789.0379028320312	1049.240234375	-337.5466918945312	1029.00537109375	693.9536743164062	-493.4064331054688	841.5969848632812	389.5607604980469	-476.0604248046875	953.876220703125	663.2094116210938	-510.9896240234375	1061.8779296875	599.0120849609375	-468.8609008789062	562.2783203125	68.95654296875	-225.8038787841797	908.7060546875	462.808837890625	-489.4678039550781	984.0128784179688	569.643798828125	-485.4016723632812	847.7019653320312	623.1431884765625	-192.1759643554688	893.04736328125	102.169548034668	-429.5271301269531	774.3050537109375	647.9617919921875	-190.4571380615234	815.7687377929688	528.9577026367188	-212.8291320800781	740.7000732421875	557.522216796875	-207.9223785400391	1023.294860839844	536.2705078125	-477.3528137207031	753.20703125	513.7310791015625	-204.3502960205078	966.4116821289062	410.761474609375	-479.22900390625	899.4319458007812	336.9103393554688	-470.5537719726562	710.9970092773438	395.0982055664062	-204.4598846435547	826.679931640625	124.6975555419922	-483.3079833984375	646.0829467773438	442.0408935546875	-198.6834716796875	694.5946044921875	229.0294036865234	-363.056640625	652.4990844726562	311.9387512207031	-215.4149780273438	589.4979858398438	360.7825927734375	-213.7463989257812	753.562255859375	231.96630859375	-450.1316223144531	509.4499816894531	183.9297027587891	-249.5493469238281	626.0630493164062	49.47714614868164	-280.3305969238281	444.3327026367188	204.23095703125	-312.1061706542969	442.5234680175781	177.0096740722656	-342.2405090332031	426.0618286132812	184.7427368164062	-294.39599609375	681.089599609375	228.9910888671875	-416.3645935058594
200	0.995	935.25341796875	1476.995483398438	-497.2154846191406	986.7221069335938	1442.411865234375	-188.5115051269531	887.4572143554688	1023.072570800781	-496.7168884277344	906.6383056640624	995.8233642578124	-196.8139495849609	945.9769287109376	972.9349975585938	-478.9225769042969	727.6499633789062	245.616455078125	-390.6451721191406	961.7005004882812	947.004150390625	-221.7004852294922	831.3255004882812	897.1761474609375	-511.044189453125	804.5411987304688	907.0629272460938	-197.6423034667969	806.0331420898438	1052.736572265625	-337.1109008789062	1045.960327148438	697.6382446289062	-492.994873046875	863.0753173828125	385.0452880859375	-474.7241516113281	971.1536254882812	667.0341796875	-511.4266052246094	1078.404663085938	602.613525390625	-468.5844421386719	566.6052856445312	70.9723129272461	-224.0749206542969	926.7852783203124	460.72021484375	-489.0459594726562	1000.574768066406	573.6585693359375	-485.8790893554688	860.5235595703125	627.3161010742188	-191.5492248535156	928.4232177734376	101.3556137084961	-428.8583984375	787.2717895507812	652.9193725585938	-189.6181182861328	826.6453247070312	533.5889892578125	-211.8468322753906	751.9750366210938	563.5767211914062	-207.5061340332031	1039.765747070312	539.4967041015625	-477.095703125	763.462158203125	519.45703125	-203.2323455810547	986.7549438476562	411.5653991699219	-478.652587890625	923.0547485351562	334.6685485839844	-469.3931884765625	720.279052734375	401.4560241699219	-202.5562286376953	859.310546875	119.3249053955078	-481.1368408203125	655.0991821289062	448.3135681152344	-197.5488739013672	723.8063354492188	217.9521179199219	-360.0168151855469	660.9969482421875	318.1383972167969	-212.9217681884766	598.8942260742188	367.3723449707031	-212.0489654541016	781.8756103515625	223.5970611572266	-447.5505981445312	518.7547607421875	189.8748474121094	-246.4643402099609	628.7703857421875	48.44096374511719	-278.3692016601562	457.4698181152344	214.1974029541016	-308.3814392089844	452.3169555664062	187.8881072998047	-339.6641235351562	436.4372253417969	195.2321929931641	-291.0726318359375	710.5861206054688	216.6734313964844	-412.3893737792969
201	1.0	949.2280883789062	1480.613891601562	-496.9562683105469	1003.075805664062	1446.553100585938	-189.2456817626953	904.186279296875	1027.317260742188	-496.6710510253906	924.5370483398438	999.2435302734376	-197.3700408935547	962.6727905273438	976.66943359375	-479.0395202636719	755.758544921875	234.4443206787109	-387.2018432617188	979.4011840820312	950.1045532226562	-222.4094390869141	847.7628784179688	901.3291015625	-511.4293518066406	822.0076904296875	911.8013916015624	-196.6690673828125	823.2127075195312	1056.583862304688	-336.636962890625	1062.78662109375	701.0977172851562	-492.9904479980469	884.484619140625	380.1214599609375	-473.7284545898438	988.2008666992188	670.8546752929688	-511.4262390136719	1094.58251953125	605.962890625	-468.4854736328125	571.203857421875	72.5767593383789	-222.5189361572266	944.8381958007812	458.52734375	-489.0436096191406	1017.0283203125	576.9931640625	-485.8954772949219	873.1127319335938	631.2750854492188	-191.1094665527344	962.518310546875	99.69409942626952	-427.5806274414062	800.2827758789062	658.51220703125	-188.4267730712891	837.2841796875	538.28515625	-210.9181976318359	763.2313232421875	569.051513671875	-206.7326507568359	1055.95556640625	542.9483642578125	-477.0759887695312	774.1765747070312	525.2922973632812	-202.2731170654297	1006.810791015625	412.2146911621094	-479.1287231445312	946.5971069335938	332.4157104492188	-468.579345703125	729.6010131835938	407.7308654785156	-200.6013031005859	892.9639892578125	114.7456130981445	-479.4920959472656	665.0363159179688	454.6522216796875	-196.3302917480469	753.3377685546875	207.0169525146484	-356.5943298339844	672.749267578125	323.3837280273438	-208.537109375	608.1627197265625	373.6625061035156	-210.2745819091797	810.568359375	215.4414215087891	-445.397216796875	529.029541015625	195.4659576416016	-243.1082458496094	631.843994140625	47.56998825073242	-277.5335693359375	469.5465698242188	223.6261596679688	-304.7520751953125	462.9532775878906	197.9924468994141	-336.1201782226562	447.5971984863281	205.4391326904297	-287.5937805175781	739.359375	205.8287963867188	-409.57861328125
202	1.005	963.142578125	1484.08154296875	-496.6069641113281	1019.138916015625	1450.229736328125	-190.1010284423828	920.8086547851562	1030.913818359375	-496.3061828613281	942.8093872070312	1002.044921875	-197.5731201171875	979.1034545898438	980.3894653320312	-479.2538452148438	784.3961181640625	224.2757263183594	-384.4086608886719	997.1172485351562	952.9811401367188	-222.8537139892578	864.25048828125	905.1085815429688	-511.6837463378906	839.1583251953125	915.6196899414062	-196.1125335693359	840.3792724609375	1059.903686523438	-336.5509033203125	1079.255981445312	704.1175537109375	-492.8414306640625	906.0010375976562	375.2321472167969	-472.4060363769531	1004.555236816406	674.1203002929688	-511.4432067871094	1110.802368164062	608.7294921875	-468.3054504394531	576.4175415039062	74.74994659423828	-220.54833984375	963.130615234375	456.1585083007812	-488.7882690429688	1032.839477539062	580.7493286132812	-485.8098449707031	885.4678955078125	635.3604125976562	-190.7045288085938	996.710205078125	98.63422393798828	-426.4675598144531	813.03125	663.3294677734375	-188.057861328125	848.066650390625	542.9669189453125	-210.3050079345703	774.5821533203125	575.0501098632812	-205.9146881103516	1071.330078125	545.5429077148438	-477.2310180664062	784.5950317382812	530.63037109375	-201.4656219482422	1026.94970703125	412.3547058105469	-478.2329406738281	970.32861328125	330.2718811035156	-467.7705993652344	739.7904663085938	413.6298217773438	-198.3801727294922	925.5040283203124	110.1833267211914	-477.6249694824219	674.8704223632812	461.3439636230469	-195.217041015625	783.2523193359375	196.5140991210938	-353.2512512207031	680.5884399414062	330.2066040039062	-207.833251953125	618.5460205078125	379.7162780761719	-208.4100952148438	839.271484375	207.2245941162109	-442.8049621582031	539.1026611328125	201.2655944824219	-239.8932189941406	634.9473266601562	46.33417510986328	-276.7224731445312	482.2188720703125	232.9963073730469	-300.5291748046875	474.4188537597656	208.0909576416016	-332.2798767089844	459.4932861328125	215.8560638427734	-283.8157043457031	769.1497802734375	193.8622131347656	-405.6980895996094
